<svg width="115" height="121" viewBox="0 0 115 121" fill="none" xmlns="http://www.w3.org/2000/svg">
    <g id="Knob">
        <g id="Base" filter="url(#filter0_ddd_427_2080)">
            <circle cx="62.5" cy="68.5" r="19.5" fill="url(#paint0_linear_427_2080)" />
        </g>
        <g id="Knurled" filter="url(#filter1_di_427_2080)">
            <path
                d="M60.8284 49.8331C61.9195 49.5107 63.0805 49.5107 64.1716 49.8331V49.8331C64.7411 50.0015 65.3328 50.0828 65.9267 50.0744V50.0744C67.0643 50.0582 68.1822 50.3715 69.1458 50.9763V50.9763C69.6489 51.2921 70.1967 51.53 70.7708 51.6821V51.6821C71.8705 51.9735 72.8625 52.5768 73.6272 53.4192V53.4192C74.0264 53.8589 74.4897 54.2359 75.0015 54.5372V54.5372C75.9818 55.1145 76.7743 55.963 77.2833 56.9805V56.9805C77.5491 57.5116 77.8935 57.9996 78.305 58.4279V58.4279C79.0933 59.2483 79.6274 60.2791 79.8431 61.3962V61.3962C79.9556 61.9793 80.1557 62.5421 80.4364 63.0655V63.0655C80.974 64.0681 81.2102 65.2049 81.1165 66.3387V66.3387C81.0676 66.9306 81.1084 67.5265 81.2374 68.1062V68.1062C81.4847 69.2167 81.4054 70.375 81.0093 71.4415V71.4415C80.8025 71.9983 80.681 72.5831 80.6488 73.1761V73.1761C80.5873 74.3121 80.1985 75.4061 79.5293 76.3262V76.3262C79.18 76.8065 78.9052 77.3368 78.7142 77.8992V77.8992C78.3485 78.9765 77.6789 79.925 76.7863 80.6304V80.6304C76.3203 80.9987 75.9127 81.4352 75.5771 81.9252V81.9252C74.9342 82.8639 74.0336 83.5966 72.9838 84.035V84.035C72.4358 84.2639 71.9254 84.5742 71.4701 84.9555V84.9555C70.5978 85.6859 69.5329 86.1485 68.4037 86.2874V86.2874C67.8143 86.3599 67.2391 86.5211 66.6978 86.7654V86.7654C65.6608 87.2334 64.5106 87.3915 63.3858 87.2206V87.2206C62.7986 87.1314 62.2014 87.1314 61.6142 87.2206V87.2206C60.4894 87.3915 59.3392 87.2334 58.3022 86.7654V86.7654C57.7609 86.5211 57.1857 86.3599 56.5963 86.2874V86.2874C55.4671 86.1485 54.4022 85.6859 53.5299 84.9555V84.9555C53.0746 84.5742 52.5643 84.2639 52.0162 84.035V84.035C50.9664 83.5966 50.0658 82.8639 49.4229 81.9252V81.9252C49.0873 81.4352 48.6797 80.9987 48.2137 80.6304V80.6304C47.3211 79.925 46.6515 78.9765 46.2858 77.8992V77.8992C46.0948 77.3368 45.8201 76.8065 45.4707 76.3262V76.3262C44.8015 75.4061 44.4127 74.3121 44.3512 73.1761V73.1761C44.319 72.5831 44.1975 71.9983 43.9907 71.4415V71.4415C43.5946 70.375 43.5153 69.2167 43.7626 68.1062V68.1062C43.8916 67.5265 43.9324 66.9306 43.8835 66.3387V66.3387C43.7898 65.2049 44.026 64.0681 44.5637 63.0655V63.0655C44.8443 62.5421 45.0444 61.9793 45.1569 61.3962V61.3962C45.3726 60.2791 45.9067 59.2483 46.695 58.4279V58.4279C47.1065 57.9996 47.4509 57.5116 47.7167 56.9805V56.9805C48.2257 55.963 49.0182 55.1145 49.9985 54.5372V54.5372C50.5103 54.2359 50.9736 53.8589 51.3728 53.4192V53.4192C52.1375 52.5768 53.1295 51.9735 54.2292 51.6821V51.6821C54.8033 51.53 55.3511 51.2921 55.8542 50.9763V50.9763C56.8178 50.3715 57.9357 50.0582 59.0733 50.0744V50.0744C59.6672 50.0828 60.2589 50.0015 60.8284 49.8331V49.8331Z"
                fill="url(#paint1_linear_427_2080)" />
        </g>
        <g id="knob-indicator-group" filter="url(#filter2_di_427_2080)">
            <mask id="mask0_427_2080" style="mask-type:alpha" maskUnits="userSpaceOnUse" x="53" y="49" width="19"
                height="29">
                <path id="Indent Mask"
                    d="M62.3307 49C63.6417 49.0001 64.7047 50.063 64.7047 51.374V59.5127V59.5127C64.7047 59.8485 64.8902 60.1803 65.2092 60.2854C68.6582 61.4222 71.1481 64.6702 71.1481 68.5C71.1481 73.2761 67.2757 77.1475 62.4996 77.1475C57.7237 77.1473 53.8522 73.2759 53.8522 68.5C53.8522 64.8182 56.1535 61.6751 59.3958 60.4277C59.756 60.2892 59.9567 59.8986 59.9567 59.5127V59.5127V51.374C59.9567 50.0629 61.0196 49 62.3307 49Z"
                    fill="black" />
            </mask>
            <g mask="url(#mask0_427_2080)">
                <g id="Circular Indent" filter="url(#filter3_di_427_2080)">
                    <circle cx="62.5" cy="68.5" r="8.64783" fill="url(#paint2_radial_427_2080)" />
                </g>
                <g id="Line">
                    <mask id="mask1_427_2080" style="mask-type:alpha" maskUnits="userSpaceOnUse" x="59" y="49" width="6"
                        height="16">
                        <rect id="Line Mask" x="59.9565" y="49" width="4.74783" height="15.2609" rx="2.37391"
                            fill="url(#paint3_linear_427_2080)" />
                    </mask>
                    <g mask="url(#mask1_427_2080)">
                        <g id="Rectangle 2" filter="url(#filter4_f_427_2080)">
                            <rect x="59.2782" y="46.9652" width="6.10435" height="16.6174"
                                fill="url(#paint4_linear_427_2080)" />
                        </g>
                        <g id="Rectangle 1" filter="url(#filter5_f_427_2080)">
                            <rect x="62.6695" y="46.9652" width="6.78261" height="14.5826" fill="#FFA96C" />
                        </g>
                    </g>
                </g>
            </g>
        </g>
    </g>
    <defs>
        <filter id="filter0_ddd_427_2080" x="-5.99999" y="0" width="121" height="121" filterUnits="userSpaceOnUse"
            color-interpolation-filters="sRGB">
            <feFlood flood-opacity="0" result="BackgroundImageFix" />
            <feColorMatrix in="SourceAlpha" type="matrix" values="0 0 0 0 0 0 0 0 0 0 0 0 0 0 0 0 0 0 127 0"
                result="hardAlpha" />
            <feMorphology radius="9" operator="dilate" in="SourceAlpha" result="effect1_dropShadow_427_2080" />
            <feOffset dx="-8" dy="-8" />
            <feGaussianBlur stdDeviation="16" />
            <feComposite in2="hardAlpha" operator="out" />
            <feColorMatrix type="matrix" values="0 0 0 0 1 0 0 0 0 1 0 0 0 0 1 0 0 0 0.4 0" />
            <feBlend mode="normal" in2="BackgroundImageFix" result="effect1_dropShadow_427_2080" />
            <feColorMatrix in="SourceAlpha" type="matrix" values="0 0 0 0 0 0 0 0 0 0 0 0 0 0 0 0 0 0 127 0"
                result="hardAlpha" />
            <feOffset dx="8" dy="8" />
            <feGaussianBlur stdDeviation="8" />
            <feComposite in2="hardAlpha" operator="out" />
            <feColorMatrix type="matrix" values="0 0 0 0 0 0 0 0 0 0 0 0 0 0 0 0 0 0 0.35 0" />
            <feBlend mode="normal" in2="effect1_dropShadow_427_2080" result="effect2_dropShadow_427_2080" />
            <feColorMatrix in="SourceAlpha" type="matrix" values="0 0 0 0 0 0 0 0 0 0 0 0 0 0 0 0 0 0 127 0"
                result="hardAlpha" />
            <feOffset dx="2" dy="2" />
            <feGaussianBlur stdDeviation="2" />
            <feComposite in2="hardAlpha" operator="out" />
            <feColorMatrix type="matrix" values="0 0 0 0 0 0 0 0 0 0 0 0 0 0 0 0 0 0 0.35 0" />
            <feBlend mode="normal" in2="effect2_dropShadow_427_2080" result="effect3_dropShadow_427_2080" />
            <feBlend mode="normal" in="SourceGraphic" in2="effect3_dropShadow_427_2080" result="shape" />
        </filter>
        <filter id="filter1_di_427_2080" x="43.6216" y="49.5913" width="39.7567" height="39.6962"
            filterUnits="userSpaceOnUse" color-interpolation-filters="sRGB">
            <feFlood flood-opacity="0" result="BackgroundImageFix" />
            <feColorMatrix in="SourceAlpha" type="matrix" values="0 0 0 0 0 0 0 0 0 0 0 0 0 0 0 0 0 0 127 0"
                result="hardAlpha" />
            <feOffset dx="1" dy="1" />
            <feGaussianBlur stdDeviation="0.5" />
            <feComposite in2="hardAlpha" operator="out" />
            <feColorMatrix type="matrix" values="0 0 0 0 0 0 0 0 0 0 0 0 0 0 0 0 0 0 0.4 0" />
            <feBlend mode="normal" in2="BackgroundImageFix" result="effect1_dropShadow_427_2080" />
            <feBlend mode="normal" in="SourceGraphic" in2="effect1_dropShadow_427_2080" result="shape" />
            <feColorMatrix in="SourceAlpha" type="matrix" values="0 0 0 0 0 0 0 0 0 0 0 0 0 0 0 0 0 0 127 0"
                result="hardAlpha" />
            <feOffset dx="1" dy="1" />
            <feGaussianBlur stdDeviation="0.5" />
            <feComposite in2="hardAlpha" operator="arithmetic" k2="-1" k3="1" />
            <feColorMatrix type="matrix" values="0 0 0 0 1 0 0 0 0 1 0 0 0 0 1 0 0 0 0.8 0" />
            <feBlend mode="normal" in2="shape" result="effect2_innerShadow_427_2080" />
        </filter>
        <filter id="filter2_di_427_2080" x="53.8522" y="49" width="19.2957" height="30.1475"
            filterUnits="userSpaceOnUse" color-interpolation-filters="sRGB">
            <feFlood flood-opacity="0" result="BackgroundImageFix" />
            <feColorMatrix in="SourceAlpha" type="matrix" values="0 0 0 0 0 0 0 0 0 0 0 0 0 0 0 0 0 0 127 0"
                result="hardAlpha" />
            <feOffset dx="1" dy="1" />
            <feGaussianBlur stdDeviation="0.5" />
            <feComposite in2="hardAlpha" operator="out" />
            <feColorMatrix type="matrix" values="0 0 0 0 1 0 0 0 0 1 0 0 0 0 1 0 0 0 0.8 0" />
            <feBlend mode="normal" in2="BackgroundImageFix" result="effect1_dropShadow_427_2080" />
            <feBlend mode="normal" in="SourceGraphic" in2="effect1_dropShadow_427_2080" result="shape" />
            <feColorMatrix in="SourceAlpha" type="matrix" values="0 0 0 0 0 0 0 0 0 0 0 0 0 0 0 0 0 0 127 0"
                result="hardAlpha" />
            <feOffset dx="2" dy="2" />
            <feGaussianBlur stdDeviation="2" />
            <feComposite in2="hardAlpha" operator="arithmetic" k2="-1" k3="1" />
            <feColorMatrix type="matrix" values="0 0 0 0 0.545098 0 0 0 0 0.145098 0 0 0 0 0.105882 0 0 0 0.9 0" />
            <feBlend mode="normal" in2="shape" result="effect2_innerShadow_427_2080" />
        </filter>
        <filter id="filter3_di_427_2080" x="53.8522" y="59.8522" width="23.2957" height="23.2957"
            filterUnits="userSpaceOnUse" color-interpolation-filters="sRGB">
            <feFlood flood-opacity="0" result="BackgroundImageFix" />
            <feColorMatrix in="SourceAlpha" type="matrix" values="0 0 0 0 0 0 0 0 0 0 0 0 0 0 0 0 0 0 127 0"
                result="hardAlpha" />
            <feOffset dx="1" dy="1" />
            <feGaussianBlur stdDeviation="0.5" />
            <feComposite in2="hardAlpha" operator="out" />
            <feColorMatrix type="matrix" values="0 0 0 0 1 0 0 0 0 1 0 0 0 0 1 0 0 0 0.8 0" />
            <feBlend mode="normal" in2="BackgroundImageFix" result="effect1_dropShadow_427_2080" />
            <feBlend mode="normal" in="SourceGraphic" in2="effect1_dropShadow_427_2080" result="shape" />
            <feColorMatrix in="SourceAlpha" type="matrix" values="0 0 0 0 0 0 0 0 0 0 0 0 0 0 0 0 0 0 127 0"
                result="hardAlpha" />
            <feOffset dx="6" dy="6" />
            <feGaussianBlur stdDeviation="6" />
            <feComposite in2="hardAlpha" operator="arithmetic" k2="-1" k3="1" />
            <feColorMatrix type="matrix" values="0 0 0 0 0.545098 0 0 0 0 0.145098 0 0 0 0 0.105882 0 0 0 0.9 0" />
            <feBlend mode="normal" in2="shape" result="effect2_innerShadow_427_2080" />
        </filter>
        <filter id="filter4_f_427_2080" x="55.2782" y="42.9652" width="14.1043" height="24.6174"
            filterUnits="userSpaceOnUse" color-interpolation-filters="sRGB">
            <feFlood flood-opacity="0" result="BackgroundImageFix" />
            <feBlend mode="normal" in="SourceGraphic" in2="BackgroundImageFix" result="shape" />
            <feGaussianBlur stdDeviation="2" result="effect1_foregroundBlur_427_2080" />
        </filter>
        <filter id="filter5_f_427_2080" x="56.6695" y="40.9652" width="18.7826" height="26.5826"
            filterUnits="userSpaceOnUse" color-interpolation-filters="sRGB">
            <feFlood flood-opacity="0" result="BackgroundImageFix" />
            <feBlend mode="normal" in="SourceGraphic" in2="BackgroundImageFix" result="shape" />
            <feGaussianBlur stdDeviation="3" result="effect1_foregroundBlur_427_2080" />
        </filter>
        <linearGradient id="paint0_linear_427_2080" x1="48.8673" y1="55.2124" x2="75.6151" y2="81.9602"
            gradientUnits="userSpaceOnUse">
            <stop stop-color="#E7E7E7" />
            <stop offset="1" stop-color="#C2C2C4" />
        </linearGradient>
        <linearGradient id="paint1_linear_427_2080" x1="62.5" y1="49.3391" x2="62.5" y2="87.6609"
            gradientUnits="userSpaceOnUse">
            <stop stop-color="#C7C7C9" />
            <stop offset="1" stop-color="#C5C5C7" />
        </linearGradient>
        <radialGradient id="paint2_radial_427_2080" cx="0" cy="0" r="1" gradientUnits="userSpaceOnUse"
            gradientTransform="translate(68.0957 74.0957) rotate(-135) scale(9.83186)">
            <stop stop-color="#FEDAC3" />
            <stop offset="0.484375" stop-color="#FF9C57" />
            <stop offset="1" stop-color="#F9601B" />
        </radialGradient>
        <linearGradient id="paint3_linear_427_2080" x1="62.3304" y1="60.3609" x2="62.3304" y2="64.2609"
            gradientUnits="userSpaceOnUse">
            <stop />
            <stop offset="1" stop-opacity="0" />
        </linearGradient>
        <linearGradient id="paint4_linear_427_2080" x1="59.2782" y1="55.4435" x2="65.3826" y2="55.4435"
            gradientUnits="userSpaceOnUse">
            <stop stop-color="#D93E13" />
            <stop offset="1" stop-color="#FF6924" />
        </linearGradient>
    </defs>
</svg>