<svg width="121" height="121" viewBox="0 0 121 121" fill="none" xmlns="http://www.w3.org/2000/svg">
    <g id="simpleknob">
        <g id="base" filter="url(#filter0_ddd_459_2080)">
            <circle cx="68.5" cy="68.5" r="19.5" fill="url(#paint0_linear_459_2080)" />
        </g>
        <g id="knurled" filter="url(#filter1_di_459_2080)">
            <path
                d="M66.7989 49.5027C67.9092 49.1746 69.0908 49.1746 70.2011 49.5027V49.5027C70.7808 49.674 71.383 49.7568 71.9873 49.7483V49.7483C73.1451 49.7318 74.2828 50.0506 75.2635 50.6662V50.6662C75.7754 50.9875 76.3329 51.2297 76.9172 51.3845V51.3845C78.0364 51.681 79.0459 52.295 79.8242 53.1523V53.1523C80.2304 53.5998 80.7019 53.9834 81.2228 54.2901V54.2901C82.2205 54.8776 83.0269 55.7412 83.545 56.7766V56.7766C83.8154 57.3172 84.166 57.8138 84.5847 58.2496V58.2496C85.3869 59.0845 85.9305 60.1336 86.15 61.2704V61.2704C86.2646 61.8639 86.4682 62.4367 86.7538 62.9693V62.9693C87.301 63.9897 87.5414 65.1466 87.446 66.3004V66.3004C87.3962 66.9028 87.4377 67.5093 87.5691 68.0992V68.0992C87.8207 69.2294 87.74 70.4082 87.3369 71.4936V71.4936C87.1264 72.0602 87.0027 72.6553 86.9701 73.2589V73.2589C86.9074 74.415 86.5117 75.5284 85.8307 76.4647V76.4647C85.4752 76.9535 85.1955 77.4932 85.0012 78.0656V78.0656C84.629 79.1619 83.9476 80.1272 83.0392 80.8451V80.8451C82.565 81.2199 82.1501 81.6641 81.8085 82.1628V82.1628C81.1543 83.1181 80.2378 83.8638 79.1693 84.31V84.31C78.6116 84.5429 78.0922 84.8587 77.6288 85.2468V85.2468C76.7411 85.9901 75.6574 86.4608 74.5082 86.6022V86.6022C73.9083 86.676 73.323 86.84 72.7721 87.0887V87.0887C71.7168 87.565 70.5462 87.7258 69.4015 87.552V87.552C68.8039 87.4612 68.1961 87.4612 67.5985 87.552V87.552C66.4538 87.7258 65.2832 87.565 64.2279 87.0887V87.0887C63.677 86.84 63.0917 86.676 62.4918 86.6022V86.6022C61.3426 86.4608 60.2589 85.9901 59.3712 85.2468V85.2468C58.9078 84.8587 58.3884 84.5429 57.8307 84.31V84.31C56.7622 83.8638 55.8457 83.1181 55.1915 82.1628V82.1628C54.8499 81.6641 54.435 81.2199 53.9608 80.8451V80.8451C53.0524 80.1272 52.371 79.1619 51.9988 78.0656V78.0656C51.8045 77.4932 51.5248 76.9535 51.1693 76.4647V76.4647C50.4883 75.5284 50.0926 74.415 50.03 73.2589V73.2589C49.9973 72.6553 49.8736 72.0602 49.6631 71.4936V71.4936C49.26 70.4082 49.1793 69.2294 49.4309 68.0992V68.0992C49.5623 67.5093 49.6038 66.9028 49.554 66.3005V66.3005C49.4586 65.1466 49.699 63.9897 50.2462 62.9693V62.9693C50.5318 62.4367 50.7354 61.8639 50.85 61.2704V61.2704C51.0695 60.1336 51.6131 59.0845 52.4153 58.2496V58.2496C52.834 57.8138 53.1846 57.3172 53.455 56.7766V56.7766C53.9731 55.7412 54.7795 54.8776 55.7772 54.2901V54.2901C56.2981 53.9834 56.7696 53.5998 57.1758 53.1523V53.1523C57.9541 52.295 58.9636 51.681 60.0828 51.3845V51.3845C60.6671 51.2297 61.2246 50.9875 61.7365 50.6662V50.6662C62.7172 50.0506 63.8549 49.7318 65.0127 49.7483V49.7483C65.617 49.7568 66.2192 49.674 66.7989 49.5027V49.5027Z"
                fill="url(#paint1_linear_459_2080)" />
        </g>
        <g id="center" filter="url(#filter2_di_459_2080)">
            <circle cx="68.5" cy="68.5" r="8.5" fill="url(#paint2_radial_459_2080)" />
        </g>
        <g id="indicator" filter="url(#filter3_i_459_2080)">
            <rect x="66" y="49" width="5" height="19" rx="2.5" fill="url(#paint3_radial_459_2080)" />
        </g>
    </g>
    <defs>
        <filter id="filter0_ddd_459_2080" x="0" y="0" width="121" height="121" filterUnits="userSpaceOnUse"
            color-interpolation-filters="sRGB">
            <feFlood flood-opacity="0" result="BackgroundImageFix" />
            <feColorMatrix in="SourceAlpha" type="matrix" values="0 0 0 0 0 0 0 0 0 0 0 0 0 0 0 0 0 0 127 0"
                result="hardAlpha" />
            <feMorphology radius="9" operator="dilate" in="SourceAlpha" result="effect1_dropShadow_459_2080" />
            <feOffset dx="-8" dy="-8" />
            <feGaussianBlur stdDeviation="16" />
            <feComposite in2="hardAlpha" operator="out" />
            <feColorMatrix type="matrix" values="0 0 0 0 1 0 0 0 0 1 0 0 0 0 1 0 0 0 0.4 0" />
            <feBlend mode="normal" in2="BackgroundImageFix" result="effect1_dropShadow_459_2080" />
            <feColorMatrix in="SourceAlpha" type="matrix" values="0 0 0 0 0 0 0 0 0 0 0 0 0 0 0 0 0 0 127 0"
                result="hardAlpha" />
            <feOffset dx="8" dy="8" />
            <feGaussianBlur stdDeviation="8" />
            <feComposite in2="hardAlpha" operator="out" />
            <feColorMatrix type="matrix" values="0 0 0 0 0 0 0 0 0 0 0 0 0 0 0 0 0 0 0.35 0" />
            <feBlend mode="normal" in2="effect1_dropShadow_459_2080" result="effect2_dropShadow_459_2080" />
            <feColorMatrix in="SourceAlpha" type="matrix" values="0 0 0 0 0 0 0 0 0 0 0 0 0 0 0 0 0 0 127 0"
                result="hardAlpha" />
            <feOffset dx="2" dy="2" />
            <feGaussianBlur stdDeviation="2" />
            <feComposite in2="hardAlpha" operator="out" />
            <feColorMatrix type="matrix" values="0 0 0 0 0 0 0 0 0 0 0 0 0 0 0 0 0 0 0.35 0" />
            <feBlend mode="normal" in2="effect2_dropShadow_459_2080" result="effect3_dropShadow_459_2080" />
            <feBlend mode="normal" in="SourceGraphic" in2="effect3_dropShadow_459_2080" result="shape" />
        </filter>
        <filter id="filter1_di_459_2080" x="49.2875" y="49.2566" width="40.425" height="40.3634"
            filterUnits="userSpaceOnUse" color-interpolation-filters="sRGB">
            <feFlood flood-opacity="0" result="BackgroundImageFix" />
            <feColorMatrix in="SourceAlpha" type="matrix" values="0 0 0 0 0 0 0 0 0 0 0 0 0 0 0 0 0 0 127 0"
                result="hardAlpha" />
            <feOffset dx="1" dy="1" />
            <feGaussianBlur stdDeviation="0.5" />
            <feComposite in2="hardAlpha" operator="out" />
            <feColorMatrix type="matrix" values="0 0 0 0 0 0 0 0 0 0 0 0 0 0 0 0 0 0 0.4 0" />
            <feBlend mode="normal" in2="BackgroundImageFix" result="effect1_dropShadow_459_2080" />
            <feBlend mode="normal" in="SourceGraphic" in2="effect1_dropShadow_459_2080" result="shape" />
            <feColorMatrix in="SourceAlpha" type="matrix" values="0 0 0 0 0 0 0 0 0 0 0 0 0 0 0 0 0 0 127 0"
                result="hardAlpha" />
            <feOffset dx="1" dy="1" />
            <feGaussianBlur stdDeviation="0.5" />
            <feComposite in2="hardAlpha" operator="arithmetic" k2="-1" k3="1" />
            <feColorMatrix type="matrix" values="0 0 0 0 1 0 0 0 0 1 0 0 0 0 1 0 0 0 0.8 0" />
            <feBlend mode="normal" in2="shape" result="effect2_innerShadow_459_2080" />
        </filter>
        <filter id="filter2_di_459_2080" x="60" y="60" width="23" height="23" filterUnits="userSpaceOnUse"
            color-interpolation-filters="sRGB">
            <feFlood flood-opacity="0" result="BackgroundImageFix" />
            <feColorMatrix in="SourceAlpha" type="matrix" values="0 0 0 0 0 0 0 0 0 0 0 0 0 0 0 0 0 0 127 0"
                result="hardAlpha" />
            <feOffset dx="1" dy="1" />
            <feGaussianBlur stdDeviation="0.5" />
            <feComposite in2="hardAlpha" operator="out" />
            <feColorMatrix type="matrix" values="0 0 0 0 1 0 0 0 0 1 0 0 0 0 1 0 0 0 0.8 0" />
            <feBlend mode="normal" in2="BackgroundImageFix" result="effect1_dropShadow_459_2080" />
            <feBlend mode="normal" in="SourceGraphic" in2="effect1_dropShadow_459_2080" result="shape" />
            <feColorMatrix in="SourceAlpha" type="matrix" values="0 0 0 0 0 0 0 0 0 0 0 0 0 0 0 0 0 0 127 0"
                result="hardAlpha" />
            <feOffset dx="6" dy="6" />
            <feGaussianBlur stdDeviation="6" />
            <feComposite in2="hardAlpha" operator="arithmetic" k2="-1" k3="1" />
            <feColorMatrix type="matrix" values="0 0 0 0 0.545098 0 0 0 0 0.145098 0 0 0 0 0.105882 0 0 0 0.9 0" />
            <feBlend mode="normal" in2="shape" result="effect2_innerShadow_459_2080" />
        </filter>
        <filter id="filter3_i_459_2080" x="66" y="49" width="9" height="23" filterUnits="userSpaceOnUse"
            color-interpolation-filters="sRGB">
            <feFlood flood-opacity="0" result="BackgroundImageFix" />
            <feBlend mode="normal" in="SourceGraphic" in2="BackgroundImageFix" result="shape" />
            <feColorMatrix in="SourceAlpha" type="matrix" values="0 0 0 0 0 0 0 0 0 0 0 0 0 0 0 0 0 0 127 0"
                result="hardAlpha" />
            <feOffset dx="4" dy="4" />
            <feGaussianBlur stdDeviation="3" />
            <feComposite in2="hardAlpha" operator="arithmetic" k2="-1" k3="1" />
            <feColorMatrix type="matrix" values="0 0 0 0 0.545098 0 0 0 0 0.145098 0 0 0 0 0.105882 0 0 0 0.81 0" />
            <feBlend mode="normal" in2="shape" result="effect1_innerShadow_459_2080" />
        </filter>
        <linearGradient id="paint0_linear_459_2080" x1="54.8673" y1="55.2124" x2="81.615" y2="81.9602"
            gradientUnits="userSpaceOnUse">
            <stop stop-color="#E7E7E7" />
            <stop offset="1" stop-color="#C2C2C4" />
        </linearGradient>
        <linearGradient id="paint1_linear_459_2080" x1="68.5" y1="49" x2="68.5" y2="88" gradientUnits="userSpaceOnUse">
            <stop stop-color="#C7C7C9" />
            <stop offset="1" stop-color="#C5C5C7" />
        </linearGradient>
        <radialGradient id="paint2_radial_459_2080" cx="0" cy="0" r="1" gradientUnits="userSpaceOnUse"
            gradientTransform="translate(74 74) rotate(-135) scale(9.66379)">
            <stop stop-color="#FEDAC3" />
            <stop offset="0.484375" stop-color="#FF9C57" />
            <stop offset="1" stop-color="#F9601B" />
        </radialGradient>
        <radialGradient id="paint3_radial_459_2080" cx="0" cy="0" r="1" gradientUnits="userSpaceOnUse"
            gradientTransform="translate(71 59) rotate(-90) scale(6.5 3.9)">
            <stop stop-color="white" />
            <stop offset="0.484375" stop-color="#FF9C57" />
            <stop offset="1" stop-color="#F9601B" />
        </radialGradient>
    </defs>
</svg>